<mxfile host="65bd71144e">
    <diagram id="IWB70TOukaZ4UGeHkPB8" name="Pipeline">
        <mxGraphModel dx="1196" dy="742" grid="1" gridSize="10" guides="1" tooltips="1" connect="1" arrows="1" fold="1" page="1" pageScale="1" pageWidth="850" pageHeight="1100" math="0" shadow="0">
            <root>
                <mxCell id="0"/>
                <mxCell id="1" parent="0"/>
                <mxCell id="2" value="Standarization" style="whiteSpace=wrap;html=1;" vertex="1" parent="1">
                    <mxGeometry x="30" y="170" width="120" height="110" as="geometry"/>
                </mxCell>
                <mxCell id="i5ACKql0LG9q3AbcMdRz-2" value="Speaker diarization&lt;div&gt;Remove collision&lt;/div&gt;&lt;div&gt;Concat audio&lt;/div&gt;&lt;div&gt;NISQA&lt;/div&gt;&lt;div&gt;Denoise&lt;/div&gt;&lt;div&gt;NISQA&amp;nbsp;&lt;/div&gt;&lt;div&gt;Transcription&lt;/div&gt;" style="whiteSpace=wrap;html=1;" vertex="1" parent="1">
                    <mxGeometry x="200" y="170" width="120" height="110" as="geometry"/>
                </mxCell>
            </root>
        </mxGraphModel>
    </diagram>
    <diagram id="fNVgYSwUCeeTngRnDAiV" name="Standarization">
        <mxGraphModel dx="580" dy="742" grid="1" gridSize="10" guides="1" tooltips="1" connect="1" arrows="1" fold="1" page="1" pageScale="1" pageWidth="850" pageHeight="1100" math="0" shadow="0">
            <root>
                <mxCell id="0"/>
                <mxCell id="1" parent="0"/>
                <mxCell id="QlgHtDPrVSqLK6V4DARH-2" value="Set sample rate&lt;div&gt;set bit depth&lt;/div&gt;&lt;div&gt;set channel&lt;/div&gt;" style="whiteSpace=wrap;html=1;" vertex="1" parent="1">
                    <mxGeometry x="200" y="170" width="120" height="60" as="geometry"/>
                </mxCell>
            </root>
        </mxGraphModel>
    </diagram>
</mxfile>